<mxfile host="app.diagrams.net" modified="2024-02-27T14:14:02.388Z" agent="Mozilla/5.0 (Windows NT 10.0; Win64; x64) AppleWebKit/537.36 (KHTML, like Gecko) Chrome/121.0.0.0 Safari/537.36" etag="T1jRe9OGm6KuCKzM-bpB" version="23.1.6" type="github">
  <diagram name="PÃ¡gina-1" id="e1_wRRaNP_i4suFVxVqr">
    <mxGraphModel dx="2954" dy="1098" grid="1" gridSize="10" guides="1" tooltips="1" connect="1" arrows="1" fold="1" page="1" pageScale="1" pageWidth="827" pageHeight="1169" math="0" shadow="0">
      <root>
        <mxCell id="0" />
        <mxCell id="1" parent="0" />
        <mxCell id="w67qg9FCLOekjY4AeZFf-45" style="edgeStyle=orthogonalEdgeStyle;rounded=0;orthogonalLoop=1;jettySize=auto;html=1;exitX=1;exitY=0.5;exitDx=0;exitDy=0;entryX=0;entryY=0.5;entryDx=0;entryDy=0;fillColor=#f8cecc;strokeColor=#b85450;" edge="1" parent="1" source="w67qg9FCLOekjY4AeZFf-3" target="w67qg9FCLOekjY4AeZFf-2">
          <mxGeometry relative="1" as="geometry" />
        </mxCell>
        <mxCell id="w67qg9FCLOekjY4AeZFf-46" value="" style="verticalLabelPosition=bottom;verticalAlign=top;html=1;shape=mxgraph.basic.tick" vertex="1" parent="1">
          <mxGeometry x="430" y="20" width="70" height="70" as="geometry" />
        </mxCell>
        <mxCell id="w67qg9FCLOekjY4AeZFf-47" value="Tiene Acceso" style="text;strokeColor=none;fillColor=none;html=1;fontSize=24;fontStyle=1;verticalAlign=middle;align=center;" vertex="1" parent="1">
          <mxGeometry x="510" y="40" width="170" height="40" as="geometry" />
        </mxCell>
        <mxCell id="w67qg9FCLOekjY4AeZFf-48" value="Usuarios" style="swimlane;whiteSpace=wrap;html=1;startSize=23;" vertex="1" parent="1">
          <mxGeometry x="10" y="20" width="380" height="1170" as="geometry" />
        </mxCell>
        <mxCell id="w67qg9FCLOekjY4AeZFf-1" value="" style="verticalLabelPosition=bottom;shadow=0;dashed=0;align=center;html=1;verticalAlign=top;strokeWidth=1;shape=mxgraph.mockup.containers.userMale;strokeColor=#666666;strokeColor2=#008cff;" vertex="1" parent="w67qg9FCLOekjY4AeZFf-48">
          <mxGeometry x="40" y="70" width="100" height="100" as="geometry" />
        </mxCell>
        <mxCell id="w67qg9FCLOekjY4AeZFf-3" value="USER01" style="text;html=1;align=center;verticalAlign=middle;whiteSpace=wrap;rounded=0;" vertex="1" parent="w67qg9FCLOekjY4AeZFf-48">
          <mxGeometry x="150" y="105" width="60" height="30" as="geometry" />
        </mxCell>
        <mxCell id="w67qg9FCLOekjY4AeZFf-26" value="" style="verticalLabelPosition=bottom;shadow=0;dashed=0;align=center;html=1;verticalAlign=top;strokeWidth=1;shape=mxgraph.mockup.containers.userMale;strokeColor=#666666;strokeColor2=#008cff;" vertex="1" parent="w67qg9FCLOekjY4AeZFf-48">
          <mxGeometry x="30" y="300" width="100" height="100" as="geometry" />
        </mxCell>
        <mxCell id="w67qg9FCLOekjY4AeZFf-27" value="USER02" style="text;html=1;align=center;verticalAlign=middle;whiteSpace=wrap;rounded=0;" vertex="1" parent="w67qg9FCLOekjY4AeZFf-48">
          <mxGeometry x="140" y="335" width="60" height="30" as="geometry" />
        </mxCell>
        <mxCell id="w67qg9FCLOekjY4AeZFf-28" value="" style="verticalLabelPosition=bottom;shadow=0;dashed=0;align=center;html=1;verticalAlign=top;strokeWidth=1;shape=mxgraph.mockup.containers.userMale;strokeColor=#666666;strokeColor2=#008cff;" vertex="1" parent="w67qg9FCLOekjY4AeZFf-48">
          <mxGeometry x="30" y="520" width="100" height="100" as="geometry" />
        </mxCell>
        <mxCell id="w67qg9FCLOekjY4AeZFf-29" value="USER03" style="text;html=1;align=center;verticalAlign=middle;whiteSpace=wrap;rounded=0;" vertex="1" parent="w67qg9FCLOekjY4AeZFf-48">
          <mxGeometry x="140" y="555" width="60" height="30" as="geometry" />
        </mxCell>
        <mxCell id="w67qg9FCLOekjY4AeZFf-30" value="" style="verticalLabelPosition=bottom;shadow=0;dashed=0;align=center;html=1;verticalAlign=top;strokeWidth=1;shape=mxgraph.mockup.containers.userMale;strokeColor=#666666;strokeColor2=#008cff;" vertex="1" parent="w67qg9FCLOekjY4AeZFf-48">
          <mxGeometry x="30" y="740" width="100" height="100" as="geometry" />
        </mxCell>
        <mxCell id="w67qg9FCLOekjY4AeZFf-31" value="USER04" style="text;html=1;align=center;verticalAlign=middle;whiteSpace=wrap;rounded=0;" vertex="1" parent="w67qg9FCLOekjY4AeZFf-48">
          <mxGeometry x="140" y="775" width="60" height="30" as="geometry" />
        </mxCell>
        <mxCell id="w67qg9FCLOekjY4AeZFf-32" value="Siebel Administrator" style="text;strokeColor=none;fillColor=none;align=left;verticalAlign=middle;spacingLeft=4;spacingRight=4;overflow=hidden;points=[[0,0.5],[1,0.5]];portConstraint=eastwest;rotatable=0;whiteSpace=wrap;html=1;" vertex="1" parent="w67qg9FCLOekjY4AeZFf-48">
          <mxGeometry x="110" y="180" width="120" height="30" as="geometry" />
        </mxCell>
        <mxCell id="w67qg9FCLOekjY4AeZFf-33" value="BPD Usuario Revisor" style="text;strokeColor=none;fillColor=none;align=left;verticalAlign=middle;spacingLeft=4;spacingRight=4;overflow=hidden;points=[[0,0.5],[1,0.5]];portConstraint=eastwest;rotatable=0;whiteSpace=wrap;html=1;" vertex="1" parent="w67qg9FCLOekjY4AeZFf-48">
          <mxGeometry x="110" y="210" width="150" height="30" as="geometry" />
        </mxCell>
        <mxCell id="w67qg9FCLOekjY4AeZFf-35" value="1.BPD - VPA Negocios" style="text;strokeColor=none;fillColor=none;align=left;verticalAlign=middle;spacingLeft=4;spacingRight=4;overflow=hidden;points=[[0,0.5],[1,0.5]];portConstraint=eastwest;rotatable=0;whiteSpace=wrap;html=1;" vertex="1" parent="w67qg9FCLOekjY4AeZFf-48">
          <mxGeometry x="110" y="240" width="230" height="30" as="geometry" />
        </mxCell>
        <mxCell id="w67qg9FCLOekjY4AeZFf-36" value="1.BPD - VPA Negocios" style="text;strokeColor=none;fillColor=none;align=left;verticalAlign=middle;spacingLeft=4;spacingRight=4;overflow=hidden;points=[[0,0.5],[1,0.5]];portConstraint=eastwest;rotatable=0;whiteSpace=wrap;html=1;" vertex="1" parent="w67qg9FCLOekjY4AeZFf-48">
          <mxGeometry x="110" y="440" width="230" height="30" as="geometry" />
        </mxCell>
        <mxCell id="w67qg9FCLOekjY4AeZFf-37" value="BPD Usuario Revisor" style="text;strokeColor=none;fillColor=none;align=left;verticalAlign=middle;spacingLeft=4;spacingRight=4;overflow=hidden;points=[[0,0.5],[1,0.5]];portConstraint=eastwest;rotatable=0;whiteSpace=wrap;html=1;" vertex="1" parent="w67qg9FCLOekjY4AeZFf-48">
          <mxGeometry x="110" y="410" width="150" height="30" as="geometry" />
        </mxCell>
        <mxCell id="w67qg9FCLOekjY4AeZFf-38" value="1.BPD - Estado Validacion" style="text;strokeColor=none;fillColor=none;align=left;verticalAlign=middle;spacingLeft=4;spacingRight=4;overflow=hidden;points=[[0,0.5],[1,0.5]];portConstraint=eastwest;rotatable=0;whiteSpace=wrap;html=1;" vertex="1" parent="w67qg9FCLOekjY4AeZFf-48">
          <mxGeometry x="110" y="630" width="190" height="30" as="geometry" />
        </mxCell>
        <mxCell id="w67qg9FCLOekjY4AeZFf-39" value="1.BPD - Usuario Distribucion" style="text;strokeColor=none;fillColor=none;align=left;verticalAlign=middle;spacingLeft=4;spacingRight=4;overflow=hidden;points=[[0,0.5],[1,0.5]];portConstraint=eastwest;rotatable=0;whiteSpace=wrap;html=1;" vertex="1" parent="w67qg9FCLOekjY4AeZFf-48">
          <mxGeometry x="110" y="660" width="230" height="30" as="geometry" />
        </mxCell>
        <mxCell id="w67qg9FCLOekjY4AeZFf-40" value="BPD Usuario Revisor" style="text;strokeColor=none;fillColor=none;align=left;verticalAlign=middle;spacingLeft=4;spacingRight=4;overflow=hidden;points=[[0,0.5],[1,0.5]];portConstraint=eastwest;rotatable=0;whiteSpace=wrap;html=1;" vertex="1" parent="w67qg9FCLOekjY4AeZFf-48">
          <mxGeometry x="110" y="850" width="150" height="30" as="geometry" />
        </mxCell>
        <mxCell id="w67qg9FCLOekjY4AeZFf-41" value="BPD Usuario Tecnico" style="text;strokeColor=none;fillColor=none;align=left;verticalAlign=middle;spacingLeft=4;spacingRight=4;overflow=hidden;points=[[0,0.5],[1,0.5]];portConstraint=eastwest;rotatable=0;whiteSpace=wrap;html=1;" vertex="1" parent="w67qg9FCLOekjY4AeZFf-48">
          <mxGeometry x="110" y="880" width="150" height="30" as="geometry" />
        </mxCell>
        <mxCell id="w67qg9FCLOekjY4AeZFf-70" value="BPD Usuario Tecnico" style="text;strokeColor=none;fillColor=none;align=left;verticalAlign=middle;spacingLeft=4;spacingRight=4;overflow=hidden;points=[[0,0.5],[1,0.5]];portConstraint=eastwest;rotatable=0;whiteSpace=wrap;html=1;" vertex="1" parent="w67qg9FCLOekjY4AeZFf-48">
          <mxGeometry x="110" y="470" width="150" height="30" as="geometry" />
        </mxCell>
        <mxCell id="w67qg9FCLOekjY4AeZFf-71" value="" style="ellipse;whiteSpace=wrap;html=1;aspect=fixed;fillColor=#f8cecc;strokeColor=#b85450;" vertex="1" parent="w67qg9FCLOekjY4AeZFf-48">
          <mxGeometry x="120" y="70" width="20" height="20" as="geometry" />
        </mxCell>
        <mxCell id="w67qg9FCLOekjY4AeZFf-72" value="" style="ellipse;whiteSpace=wrap;html=1;aspect=fixed;fillColor=#d5e8d4;strokeColor=#82b366;" vertex="1" parent="w67qg9FCLOekjY4AeZFf-48">
          <mxGeometry x="110" y="520" width="20" height="20" as="geometry" />
        </mxCell>
        <mxCell id="w67qg9FCLOekjY4AeZFf-73" value="" style="ellipse;whiteSpace=wrap;html=1;aspect=fixed;fillColor=#dae8fc;strokeColor=#6c8ebf;" vertex="1" parent="w67qg9FCLOekjY4AeZFf-48">
          <mxGeometry x="110" y="300" width="20" height="20" as="geometry" />
        </mxCell>
        <mxCell id="w67qg9FCLOekjY4AeZFf-74" value="" style="ellipse;whiteSpace=wrap;html=1;aspect=fixed;fillColor=#ffe6cc;strokeColor=#d79b00;" vertex="1" parent="w67qg9FCLOekjY4AeZFf-48">
          <mxGeometry x="110" y="740" width="20" height="20" as="geometry" />
        </mxCell>
        <mxCell id="w67qg9FCLOekjY4AeZFf-49" value="Shortcuts" style="swimlane;whiteSpace=wrap;html=1;" vertex="1" parent="1">
          <mxGeometry x="710" y="20" width="430" height="1170" as="geometry" />
        </mxCell>
        <mxCell id="w67qg9FCLOekjY4AeZFf-2" value="Memos" style="rounded=1;whiteSpace=wrap;html=1;" vertex="1" parent="w67qg9FCLOekjY4AeZFf-49">
          <mxGeometry x="70" y="100" width="120" height="40" as="geometry" />
        </mxCell>
        <mxCell id="w67qg9FCLOekjY4AeZFf-4" value="TX Linea" style="text;strokeColor=none;fillColor=none;html=1;fontSize=24;fontStyle=1;verticalAlign=middle;align=center;" vertex="1" parent="w67qg9FCLOekjY4AeZFf-49">
          <mxGeometry x="40" y="40" width="100" height="40" as="geometry" />
        </mxCell>
        <mxCell id="w67qg9FCLOekjY4AeZFf-5" value="Siebel Administrator" style="text;strokeColor=none;fillColor=none;align=left;verticalAlign=middle;spacingLeft=4;spacingRight=4;overflow=hidden;points=[[0,0.5],[1,0.5]];portConstraint=eastwest;rotatable=0;whiteSpace=wrap;html=1;" vertex="1" parent="w67qg9FCLOekjY4AeZFf-49">
          <mxGeometry x="117" y="160" width="120" height="30" as="geometry" />
        </mxCell>
        <mxCell id="w67qg9FCLOekjY4AeZFf-6" value="Documentos OnBase" style="rounded=1;whiteSpace=wrap;html=1;" vertex="1" parent="w67qg9FCLOekjY4AeZFf-49">
          <mxGeometry x="70" y="270" width="120" height="40" as="geometry" />
        </mxCell>
        <mxCell id="w67qg9FCLOekjY4AeZFf-7" value="Millas" style="rounded=1;whiteSpace=wrap;html=1;" vertex="1" parent="w67qg9FCLOekjY4AeZFf-49">
          <mxGeometry x="70" y="460" width="120" height="40" as="geometry" />
        </mxCell>
        <mxCell id="w67qg9FCLOekjY4AeZFf-8" value="Cambio Datos -Empleador" style="rounded=1;whiteSpace=wrap;html=1;" vertex="1" parent="w67qg9FCLOekjY4AeZFf-49">
          <mxGeometry x="70" y="715" width="120" height="40" as="geometry" />
        </mxCell>
        <mxCell id="w67qg9FCLOekjY4AeZFf-9" value="Solicitud" style="text;strokeColor=none;fillColor=none;html=1;fontSize=24;fontStyle=1;verticalAlign=middle;align=center;" vertex="1" parent="w67qg9FCLOekjY4AeZFf-49">
          <mxGeometry x="40" y="650" width="100" height="40" as="geometry" />
        </mxCell>
        <mxCell id="w67qg9FCLOekjY4AeZFf-10" value="Correcion -Nombre/Ced/Pasaport" style="rounded=1;whiteSpace=wrap;html=1;" vertex="1" parent="w67qg9FCLOekjY4AeZFf-49">
          <mxGeometry x="70" y="890" width="120" height="40" as="geometry" />
        </mxCell>
        <mxCell id="w67qg9FCLOekjY4AeZFf-11" value="EnvÃ­o de estados" style="rounded=1;whiteSpace=wrap;html=1;" vertex="1" parent="w67qg9FCLOekjY4AeZFf-49">
          <mxGeometry x="70" y="1000" width="120" height="40" as="geometry" />
        </mxCell>
        <mxCell id="w67qg9FCLOekjY4AeZFf-12" value="BPD Tx Linea" style="text;strokeColor=none;fillColor=none;align=left;verticalAlign=middle;spacingLeft=4;spacingRight=4;overflow=hidden;points=[[0,0.5],[1,0.5]];portConstraint=eastwest;rotatable=0;whiteSpace=wrap;html=1;" vertex="1" parent="w67qg9FCLOekjY4AeZFf-49">
          <mxGeometry x="117" y="190" width="120" height="30" as="geometry" />
        </mxCell>
        <mxCell id="w67qg9FCLOekjY4AeZFf-13" value="Siebel Administrator" style="text;strokeColor=none;fillColor=none;align=left;verticalAlign=middle;spacingLeft=4;spacingRight=4;overflow=hidden;points=[[0,0.5],[1,0.5]];portConstraint=eastwest;rotatable=0;whiteSpace=wrap;html=1;" vertex="1" parent="w67qg9FCLOekjY4AeZFf-49">
          <mxGeometry x="117" y="380" width="120" height="30" as="geometry" />
        </mxCell>
        <mxCell id="w67qg9FCLOekjY4AeZFf-16" value="Siebel Administrator" style="text;strokeColor=none;fillColor=none;align=left;verticalAlign=middle;spacingLeft=4;spacingRight=4;overflow=hidden;points=[[0,0.5],[1,0.5]];portConstraint=eastwest;rotatable=0;whiteSpace=wrap;html=1;" vertex="1" parent="w67qg9FCLOekjY4AeZFf-49">
          <mxGeometry x="117" y="505" width="120" height="30" as="geometry" />
        </mxCell>
        <mxCell id="w67qg9FCLOekjY4AeZFf-17" value="1.BPD - Subgerente Negocios" style="text;strokeColor=none;fillColor=none;align=left;verticalAlign=middle;spacingLeft=4;spacingRight=4;overflow=hidden;points=[[0,0.5],[1,0.5]];portConstraint=eastwest;rotatable=0;whiteSpace=wrap;html=1;" vertex="1" parent="w67qg9FCLOekjY4AeZFf-49">
          <mxGeometry x="117" y="535" width="190" height="30" as="geometry" />
        </mxCell>
        <mxCell id="w67qg9FCLOekjY4AeZFf-18" value="1.BPD - Estado Validacion" style="text;strokeColor=none;fillColor=none;align=left;verticalAlign=middle;spacingLeft=4;spacingRight=4;overflow=hidden;points=[[0,0.5],[1,0.5]];portConstraint=eastwest;rotatable=0;whiteSpace=wrap;html=1;" vertex="1" parent="w67qg9FCLOekjY4AeZFf-49">
          <mxGeometry x="117" y="565" width="190" height="30" as="geometry" />
        </mxCell>
        <mxCell id="w67qg9FCLOekjY4AeZFf-19" value="BPD Tx Linea" style="text;strokeColor=none;fillColor=none;align=left;verticalAlign=middle;spacingLeft=4;spacingRight=4;overflow=hidden;points=[[0,0.5],[1,0.5]];portConstraint=eastwest;rotatable=0;whiteSpace=wrap;html=1;" vertex="1" parent="w67qg9FCLOekjY4AeZFf-49">
          <mxGeometry x="117" y="595" width="120" height="30" as="geometry" />
        </mxCell>
        <mxCell id="w67qg9FCLOekjY4AeZFf-20" value="1.BPD - Usuarios Call Center Newtech" style="text;strokeColor=none;fillColor=none;align=left;verticalAlign=middle;spacingLeft=4;spacingRight=4;overflow=hidden;points=[[0,0.5],[1,0.5]];portConstraint=eastwest;rotatable=0;whiteSpace=wrap;html=1;" vertex="1" parent="w67qg9FCLOekjY4AeZFf-49">
          <mxGeometry x="117" y="760" width="230" height="30" as="geometry" />
        </mxCell>
        <mxCell id="w67qg9FCLOekjY4AeZFf-21" value="1.BPD - Plataforma" style="text;strokeColor=none;fillColor=none;align=left;verticalAlign=middle;spacingLeft=4;spacingRight=4;overflow=hidden;points=[[0,0.5],[1,0.5]];portConstraint=eastwest;rotatable=0;whiteSpace=wrap;html=1;" vertex="1" parent="w67qg9FCLOekjY4AeZFf-49">
          <mxGeometry x="117" y="790" width="230" height="30" as="geometry" />
        </mxCell>
        <mxCell id="w67qg9FCLOekjY4AeZFf-22" value="1.BPD - Soporte Proyecto CRM" style="text;strokeColor=none;fillColor=none;align=left;verticalAlign=middle;spacingLeft=4;spacingRight=4;overflow=hidden;points=[[0,0.5],[1,0.5]];portConstraint=eastwest;rotatable=0;whiteSpace=wrap;html=1;" vertex="1" parent="w67qg9FCLOekjY4AeZFf-49">
          <mxGeometry x="117" y="820" width="230" height="30" as="geometry" />
        </mxCell>
        <mxCell id="w67qg9FCLOekjY4AeZFf-23" value="1.BPD - VPA Negocios" style="text;strokeColor=none;fillColor=none;align=left;verticalAlign=middle;spacingLeft=4;spacingRight=4;overflow=hidden;points=[[0,0.5],[1,0.5]];portConstraint=eastwest;rotatable=0;whiteSpace=wrap;html=1;" vertex="1" parent="w67qg9FCLOekjY4AeZFf-49">
          <mxGeometry x="117" y="940" width="230" height="30" as="geometry" />
        </mxCell>
        <mxCell id="w67qg9FCLOekjY4AeZFf-24" value="1.BPD - Usuario Supervisor Distribucion" style="text;strokeColor=none;fillColor=none;align=left;verticalAlign=middle;spacingLeft=4;spacingRight=4;overflow=hidden;points=[[0,0.5],[1,0.5]];portConstraint=eastwest;rotatable=0;whiteSpace=wrap;html=1;" vertex="1" parent="w67qg9FCLOekjY4AeZFf-49">
          <mxGeometry x="117" y="1050" width="230" height="30" as="geometry" />
        </mxCell>
        <mxCell id="w67qg9FCLOekjY4AeZFf-25" value="Siebel Administrator" style="text;strokeColor=none;fillColor=none;align=left;verticalAlign=middle;spacingLeft=4;spacingRight=4;overflow=hidden;points=[[0,0.5],[1,0.5]];portConstraint=eastwest;rotatable=0;whiteSpace=wrap;html=1;" vertex="1" parent="w67qg9FCLOekjY4AeZFf-49">
          <mxGeometry x="117" y="1080" width="230" height="30" as="geometry" />
        </mxCell>
        <mxCell id="w67qg9FCLOekjY4AeZFf-14" value="1.BPD - Supervisor Seguimiento Plataformas Critica" style="text;strokeColor=none;fillColor=none;align=left;verticalAlign=middle;spacingLeft=4;spacingRight=4;overflow=hidden;points=[[0,0.5],[1,0.5]];portConstraint=eastwest;rotatable=0;whiteSpace=wrap;html=1;" vertex="1" parent="w67qg9FCLOekjY4AeZFf-49">
          <mxGeometry x="117" y="320" width="300" height="30" as="geometry" />
        </mxCell>
        <mxCell id="w67qg9FCLOekjY4AeZFf-15" value="1. BPD - Supervisor Segmento Nomina" style="text;strokeColor=none;fillColor=none;align=left;verticalAlign=middle;spacingLeft=4;spacingRight=4;overflow=hidden;points=[[0,0.5],[1,0.5]];portConstraint=eastwest;rotatable=0;whiteSpace=wrap;html=1;" vertex="1" parent="w67qg9FCLOekjY4AeZFf-49">
          <mxGeometry x="117" y="350" width="300" height="30" as="geometry" />
        </mxCell>
        <mxCell id="w67qg9FCLOekjY4AeZFf-56" value="1.BPD - Usuario Supervisor Distribucion" style="text;strokeColor=none;fillColor=none;align=left;verticalAlign=middle;spacingLeft=4;spacingRight=4;overflow=hidden;points=[[0,0.5],[1,0.5]];portConstraint=eastwest;rotatable=0;whiteSpace=wrap;html=1;" vertex="1" parent="w67qg9FCLOekjY4AeZFf-49">
          <mxGeometry x="117" y="220" width="230" height="30" as="geometry" />
        </mxCell>
        <mxCell id="w67qg9FCLOekjY4AeZFf-58" value="" style="ellipse;whiteSpace=wrap;html=1;aspect=fixed;fillColor=#f8cecc;strokeColor=#b85450;" vertex="1" parent="w67qg9FCLOekjY4AeZFf-49">
          <mxGeometry x="205" y="110" width="20" height="20" as="geometry" />
        </mxCell>
        <mxCell id="w67qg9FCLOekjY4AeZFf-59" value="" style="ellipse;whiteSpace=wrap;html=1;aspect=fixed;fillColor=#d5e8d4;strokeColor=#82b366;" vertex="1" parent="w67qg9FCLOekjY4AeZFf-49">
          <mxGeometry x="237" y="110" width="20" height="20" as="geometry" />
        </mxCell>
        <mxCell id="w67qg9FCLOekjY4AeZFf-60" value="" style="ellipse;whiteSpace=wrap;html=1;aspect=fixed;fillColor=#f8cecc;strokeColor=#b85450;" vertex="1" parent="w67qg9FCLOekjY4AeZFf-49">
          <mxGeometry x="200" y="280" width="20" height="20" as="geometry" />
        </mxCell>
        <mxCell id="w67qg9FCLOekjY4AeZFf-62" value="" style="ellipse;whiteSpace=wrap;html=1;aspect=fixed;fillColor=#f8cecc;strokeColor=#b85450;" vertex="1" parent="w67qg9FCLOekjY4AeZFf-49">
          <mxGeometry x="200" y="470" width="20" height="20" as="geometry" />
        </mxCell>
        <mxCell id="w67qg9FCLOekjY4AeZFf-63" value="" style="ellipse;whiteSpace=wrap;html=1;aspect=fixed;fillColor=#d5e8d4;strokeColor=#82b366;" vertex="1" parent="w67qg9FCLOekjY4AeZFf-49">
          <mxGeometry x="232" y="470" width="20" height="20" as="geometry" />
        </mxCell>
        <mxCell id="w67qg9FCLOekjY4AeZFf-66" value="" style="ellipse;whiteSpace=wrap;html=1;aspect=fixed;fillColor=#f8cecc;strokeColor=#b85450;" vertex="1" parent="w67qg9FCLOekjY4AeZFf-49">
          <mxGeometry x="200" y="900" width="20" height="20" as="geometry" />
        </mxCell>
        <mxCell id="w67qg9FCLOekjY4AeZFf-67" value="" style="ellipse;whiteSpace=wrap;html=1;aspect=fixed;fillColor=#dae8fc;strokeColor=#6c8ebf;" vertex="1" parent="w67qg9FCLOekjY4AeZFf-49">
          <mxGeometry x="232" y="900" width="20" height="20" as="geometry" />
        </mxCell>
        <mxCell id="w67qg9FCLOekjY4AeZFf-68" value="" style="ellipse;whiteSpace=wrap;html=1;aspect=fixed;fillColor=#f8cecc;strokeColor=#b85450;" vertex="1" parent="w67qg9FCLOekjY4AeZFf-49">
          <mxGeometry x="200" y="1010" width="20" height="20" as="geometry" />
        </mxCell>
        <mxCell id="w67qg9FCLOekjY4AeZFf-50" style="edgeStyle=orthogonalEdgeStyle;rounded=0;orthogonalLoop=1;jettySize=auto;html=1;exitX=1;exitY=0.5;exitDx=0;exitDy=0;entryX=0;entryY=0.5;entryDx=0;entryDy=0;fillColor=#f8cecc;strokeColor=#b85450;" edge="1" parent="1" source="w67qg9FCLOekjY4AeZFf-3" target="w67qg9FCLOekjY4AeZFf-6">
          <mxGeometry relative="1" as="geometry" />
        </mxCell>
        <mxCell id="w67qg9FCLOekjY4AeZFf-51" style="edgeStyle=orthogonalEdgeStyle;rounded=0;orthogonalLoop=1;jettySize=auto;html=1;exitX=1;exitY=0.5;exitDx=0;exitDy=0;entryX=0;entryY=0.5;entryDx=0;entryDy=0;fillColor=#f8cecc;strokeColor=#b85450;" edge="1" parent="1" source="w67qg9FCLOekjY4AeZFf-3" target="w67qg9FCLOekjY4AeZFf-7">
          <mxGeometry relative="1" as="geometry" />
        </mxCell>
        <mxCell id="w67qg9FCLOekjY4AeZFf-52" style="edgeStyle=orthogonalEdgeStyle;rounded=0;orthogonalLoop=1;jettySize=auto;html=1;exitX=1;exitY=0.5;exitDx=0;exitDy=0;entryX=0;entryY=0.5;entryDx=0;entryDy=0;fillColor=#f8cecc;strokeColor=#b85450;" edge="1" parent="1" source="w67qg9FCLOekjY4AeZFf-3" target="w67qg9FCLOekjY4AeZFf-11">
          <mxGeometry relative="1" as="geometry" />
        </mxCell>
        <mxCell id="w67qg9FCLOekjY4AeZFf-53" style="edgeStyle=orthogonalEdgeStyle;rounded=0;orthogonalLoop=1;jettySize=auto;html=1;exitX=1;exitY=0.5;exitDx=0;exitDy=0;entryX=0;entryY=0.5;entryDx=0;entryDy=0;fillColor=#f8cecc;strokeColor=#b85450;" edge="1" parent="1" source="w67qg9FCLOekjY4AeZFf-3" target="w67qg9FCLOekjY4AeZFf-10">
          <mxGeometry relative="1" as="geometry" />
        </mxCell>
        <mxCell id="w67qg9FCLOekjY4AeZFf-54" style="edgeStyle=orthogonalEdgeStyle;rounded=0;orthogonalLoop=1;jettySize=auto;html=1;exitX=1;exitY=0.5;exitDx=0;exitDy=0;entryX=0.5;entryY=0;entryDx=0;entryDy=0;fillColor=#dae8fc;strokeColor=#6c8ebf;" edge="1" parent="1" source="w67qg9FCLOekjY4AeZFf-27" target="w67qg9FCLOekjY4AeZFf-10">
          <mxGeometry relative="1" as="geometry">
            <Array as="points">
              <mxPoint x="470" y="370" />
              <mxPoint x="470" y="890" />
              <mxPoint x="840" y="890" />
            </Array>
          </mxGeometry>
        </mxCell>
        <mxCell id="w67qg9FCLOekjY4AeZFf-55" style="edgeStyle=orthogonalEdgeStyle;rounded=0;orthogonalLoop=1;jettySize=auto;html=1;exitX=1;exitY=0.5;exitDx=0;exitDy=0;entryX=0.5;entryY=0;entryDx=0;entryDy=0;fillColor=#d5e8d4;strokeColor=#82b366;" edge="1" parent="1" source="w67qg9FCLOekjY4AeZFf-29" target="w67qg9FCLOekjY4AeZFf-7">
          <mxGeometry relative="1" as="geometry">
            <Array as="points">
              <mxPoint x="490" y="590" />
              <mxPoint x="490" y="450" />
              <mxPoint x="840" y="450" />
            </Array>
          </mxGeometry>
        </mxCell>
        <mxCell id="w67qg9FCLOekjY4AeZFf-57" style="edgeStyle=orthogonalEdgeStyle;rounded=0;orthogonalLoop=1;jettySize=auto;html=1;exitX=1;exitY=0.5;exitDx=0;exitDy=0;entryX=0.5;entryY=0;entryDx=0;entryDy=0;fillColor=#d5e8d4;strokeColor=#82b366;" edge="1" parent="1" source="w67qg9FCLOekjY4AeZFf-29" target="w67qg9FCLOekjY4AeZFf-2">
          <mxGeometry relative="1" as="geometry">
            <Array as="points">
              <mxPoint x="490" y="590" />
              <mxPoint x="490" y="110" />
              <mxPoint x="840" y="110" />
            </Array>
          </mxGeometry>
        </mxCell>
      </root>
    </mxGraphModel>
  </diagram>
</mxfile>
